{
    "asset" : {
        "generator" : "Khronos glTF Blender I/O v1.1.46",
        "version" : "2.0"
    },
    "scene" : 0,
    "scenes" : [
        {
            "name" : "Scene",
            "nodes" : [
                0,
                1,
                2,
                3,
                4,
                5,
                6,
                7,
                8,
                9,
                10,
                11,
                12
            ]
        }
    ],
    "nodes" : [
        {
            "mesh" : 0,
            "name" : "Cube",
            "rotation" : [
                1,
                0,
                0,
                -3.0906991014489904e-05
            ],
            "scale" : [
                0.2608487010002136,
                0.07700983434915543,
                0.24162597954273224
            ],
            "translation" : [
                -0.18496079742908478,
                0.11473667621612549,
                -0.1799888163805008
            ]
        },
        {
            "name" : "Light",
            "rotation" : [
                0.16907575726509094,
                0.7558803558349609,
                -0.27217137813568115,
                0.570947527885437
            ],
            "translation" : [
                0.19705533981323242,
                0.8688641786575317,
                7.3072991371154785
            ]
        },
        {
            "name" : "Camera",
            "rotation" : [
                0.5669794678688049,
                0.28407153487205505,
                -0.21703113615512848,
                0.742115318775177
            ],
            "translation" : [
                1.798201560974121,
                0.917635977268219,
                1.943347692489624
            ]
        },
        {
            "mesh" : 1,
            "name" : "Cube.001",
            "rotation" : [
                1,
                0,
                0,
                -3.0906991014489904e-05
            ],
            "scale" : [
                0.2801351547241211,
                0.07118808478116989,
                0.2801351547241211
            ],
            "translation" : [
                -0.16487300395965576,
                0.259123831987381,
                -0.1799798458814621
            ]
        },
        {
            "mesh" : 2,
            "name" : "Cube.002",
            "rotation" : [
                1,
                0,
                0,
                -3.0906991014489904e-05
            ],
            "scale" : [
                0.09485097229480743,
                0.16808143258094788,
                0.28859350085258484
            ],
            "translation" : [
                -0.38670453429222107,
                0.19337597489356995,
                -0.17206238210201263
            ]
        },
        {
            "mesh" : 3,
            "name" : "Cube.003",
            "rotation" : [
                -0.7070837020874023,
                2.203084841312375e-05,
                -0.7071298956871033,
                2.190864870499354e-05
            ],
            "scale" : [
                0.09485097229480743,
                0.16808143258094788,
                0.2801351547241211
            ],
            "translation" : [
                -0.1498715877532959,
                0.18862757086753845,
                -0.3654834032058716
            ]
        },
        {
            "name" : "Light.001",
            "rotation" : [
                0.16907575726509094,
                0.7558803558349609,
                -0.27217137813568115,
                0.570947527885437
            ],
            "translation" : [
                -5.86077880859375,
                2.092967987060547,
                6.807743072509766
            ]
        },
        {
            "mesh" : 4,
            "name" : "Cylinder",
            "rotation" : [
                1,
                0,
                0,
                -3.0906991014489904e-05
            ],
            "scale" : [
                0.1706029325723648,
                0.1706029325723648,
                0.1706029325723648
            ],
            "translation" : [
                -0.23267540335655212,
                0.11291441321372986,
                0.0830066055059433
            ]
        },
        {
            "mesh" : 5,
            "name" : "Cylinder.001",
            "rotation" : [
                1,
                0,
                0,
                -3.0906991014489904e-05
            ],
            "scale" : [
                0.1706029325723648,
                0.1706029325723648,
                0.1706029325723648
            ],
            "translation" : [
                -0.11837467551231384,
                0.11291441321372986,
                0.0830066055059433
            ]
        },
        {
            "mesh" : 6,
            "name" : "Cylinder.002",
            "rotation" : [
                1,
                0,
                0,
                -3.0906991014489904e-05
            ],
            "scale" : [
                0.1706029325723648,
                0.1706029325723648,
                0.1706029325723648
            ],
            "translation" : [
                -0.014038890600204468,
                0.11291441321372986,
                0.0830066055059433
            ]
        },
        {
            "mesh" : 7,
            "name" : "Cylinder.003",
            "rotation" : [
                1,
                0,
                0,
                -3.0906991014489904e-05
            ],
            "scale" : [
                0.1706029325723648,
                0.1706029325723648,
                0.1706029325723648
            ],
            "translation" : [
                0.09994855523109436,
                0.11292186379432678,
                -0.03685547411441803
            ]
        },
        {
            "mesh" : 8,
            "name" : "Cylinder.004",
            "rotation" : [
                1,
                0,
                0,
                -3.0906991014489904e-05
            ],
            "scale" : [
                0.1706029325723648,
                0.1706029325723648,
                0.1706029325723648
            ],
            "translation" : [
                0.09994855523109436,
                0.1129305362701416,
                -0.17644397914409637
            ]
        },
        {
            "mesh" : 9,
            "name" : "Cube.004",
            "scale" : [
                1.2597460746765137,
                -0.048061806708574295,
                1.2597460746765137
            ],
            "translation" : [
                -0.18231171369552612,
                0.010959403589367867,
                -0.1708594113588333
            ]
        }
    ],
    "materials" : [
        {
            "doubleSided" : true,
            "emissiveFactor" : [
                0,
                0,
                0
            ],
            "name" : "Material.001",
            "pbrMetallicRoughness" : {
                "baseColorFactor" : [
                    0.8000000715255737,
                    0.7525759339332581,
                    0.7525759339332581,
                    1
                ],
                "metallicFactor" : 0,
                "roughnessFactor" : 0.8971428871154785
            }
        },
        {
            "doubleSided" : true,
            "emissiveFactor" : [
                0,
                0,
                0
            ],
            "name" : "Material.003",
            "pbrMetallicRoughness" : {
                "baseColorFactor" : [
                    0.4243593215942383,
                    0.2659608721733093,
                    0.8000000715255737,
                    1
                ],
                "metallicFactor" : 0,
                "roughnessFactor" : 0.808571457862854
            }
        },
        {
            "doubleSided" : true,
            "emissiveFactor" : [
                0,
                0,
                0
            ],
            "name" : "Material.004",
            "pbrMetallicRoughness" : {
                "baseColorFactor" : [
                    0.8000000715255737,
                    0.13363924622535706,
                    0.055571090430021286,
                    1
                ],
                "metallicFactor" : 0,
                "roughnessFactor" : 0.8314285278320312
            }
        },
        {
            "doubleSided" : true,
            "emissiveFactor" : [
                0,
                0,
                0
            ],
            "name" : "Pilar",
            "pbrMetallicRoughness" : {
                "baseColorFactor" : [
                    0.800000011920929,
                    0.800000011920929,
                    0.800000011920929,
                    1
                ],
                "metallicFactor" : 0,
                "roughnessFactor" : 0.6942857503890991
            }
        },
        {
            "doubleSided" : true,
            "emissiveFactor" : [
                0,
                0,
                0
            ],
            "name" : "Floor",
            "pbrMetallicRoughness" : {
                "baseColorFactor" : [
                    0.8000000715255737,
                    0.6577874422073364,
                    0.5561968684196472,
                    1
                ],
                "metallicFactor" : 0,
                "roughnessFactor" : 0.7400000095367432
            }
        }
    ],
    "meshes" : [
        {
            "name" : "Cube",
            "primitives" : [
                {
                    "attributes" : {
                        "POSITION" : 0,
                        "NORMAL" : 1,
                        "TEXCOORD_0" : 2
                    },
                    "indices" : 3,
                    "material" : 0
                }
            ]
        },
        {
            "name" : "Cube.001",
            "primitives" : [
                {
                    "attributes" : {
                        "POSITION" : 4,
                        "NORMAL" : 5,
                        "TEXCOORD_0" : 6
                    },
                    "indices" : 3,
                    "material" : 0
                }
            ]
        },
        {
            "name" : "Cube.002",
            "primitives" : [
                {
                    "attributes" : {
                        "POSITION" : 7,
                        "NORMAL" : 8,
                        "TEXCOORD_0" : 9
                    },
                    "indices" : 10,
                    "material" : 1
                }
            ]
        },
        {
            "name" : "Cube.003",
            "primitives" : [
                {
                    "attributes" : {
                        "POSITION" : 11,
                        "NORMAL" : 12,
                        "TEXCOORD_0" : 13
                    },
                    "indices" : 10,
                    "material" : 2
                }
            ]
        },
        {
            "name" : "Cylinder",
            "primitives" : [
                {
                    "attributes" : {
                        "POSITION" : 14,
                        "NORMAL" : 15,
                        "TEXCOORD_0" : 16
                    },
                    "indices" : 17,
                    "material" : 3
                }
            ]
        },
        {
            "name" : "Cylinder.001",
            "primitives" : [
                {
                    "attributes" : {
                        "POSITION" : 18,
                        "NORMAL" : 19,
                        "TEXCOORD_0" : 20
                    },
                    "indices" : 17,
                    "material" : 3
                }
            ]
        },
        {
            "name" : "Cylinder.002",
            "primitives" : [
                {
                    "attributes" : {
                        "POSITION" : 21,
                        "NORMAL" : 22,
                        "TEXCOORD_0" : 23
                    },
                    "indices" : 17,
                    "material" : 3
                }
            ]
        },
        {
            "name" : "Cylinder.003",
            "primitives" : [
                {
                    "attributes" : {
                        "POSITION" : 24,
                        "NORMAL" : 25,
                        "TEXCOORD_0" : 26
                    },
                    "indices" : 17,
                    "material" : 3
                }
            ]
        },
        {
            "name" : "Cylinder.004",
            "primitives" : [
                {
                    "attributes" : {
                        "POSITION" : 27,
                        "NORMAL" : 28,
                        "TEXCOORD_0" : 29
                    },
                    "indices" : 17,
                    "material" : 3
                }
            ]
        },
        {
            "name" : "Cube.032",
            "primitives" : [
                {
                    "attributes" : {
                        "POSITION" : 30,
                        "NORMAL" : 31,
                        "TEXCOORD_0" : 32
                    },
                    "indices" : 10,
                    "material" : 4
                }
            ]
        }
    ],
    "accessors" : [
        {
            "bufferView" : 0,
            "componentType" : 5126,
            "count" : 28,
            "max" : [
                1,
                1.0485936403274536,
                1
            ],
            "min" : [
                -1,
                -0.9514064192771912,
                -1
            ],
            "type" : "VEC3"
        },
        {
            "bufferView" : 1,
            "componentType" : 5126,
            "count" : 28,
            "type" : "VEC3"
        },
        {
            "bufferView" : 2,
            "componentType" : 5126,
            "count" : 28,
            "type" : "VEC2"
        },
        {
            "bufferView" : 3,
            "componentType" : 5123,
            "count" : 108,
            "type" : "SCALAR"
        },
        {
            "bufferView" : 4,
            "componentType" : 5126,
            "count" : 28,
            "max" : [
                1,
                1.0485936403274536,
                1
            ],
            "min" : [
                -1,
                -0.9514064192771912,
                -1
            ],
            "type" : "VEC3"
        },
        {
            "bufferView" : 5,
            "componentType" : 5126,
            "count" : 28,
            "type" : "VEC3"
        },
        {
            "bufferView" : 6,
            "componentType" : 5126,
            "count" : 28,
            "type" : "VEC2"
        },
        {
            "bufferView" : 7,
            "componentType" : 5126,
            "count" : 24,
            "max" : [
                1,
                1,
                1
            ],
            "min" : [
                -1,
                -1,
                -1
            ],
            "type" : "VEC3"
        },
        {
            "bufferView" : 8,
            "componentType" : 5126,
            "count" : 24,
            "type" : "VEC3"
        },
        {
            "bufferView" : 9,
            "componentType" : 5126,
            "count" : 24,
            "type" : "VEC2"
        },
        {
            "bufferView" : 10,
            "componentType" : 5123,
            "count" : 36,
            "type" : "SCALAR"
        },
        {
            "bufferView" : 11,
            "componentType" : 5126,
            "count" : 24,
            "max" : [
                1,
                1,
                1
            ],
            "min" : [
                -1,
                -1,
                -1
            ],
            "type" : "VEC3"
        },
        {
            "bufferView" : 12,
            "componentType" : 5126,
            "count" : 24,
            "type" : "VEC3"
        },
        {
            "bufferView" : 13,
            "componentType" : 5126,
            "count" : 24,
            "type" : "VEC2"
        },
        {
            "bufferView" : 14,
            "componentType" : 5126,
            "count" : 70,
            "max" : [
                0.04978672042489052,
                0.4300000071525574,
                0.049148667603731155
            ],
            "min" : [
                -0.04978672042489052,
                -0.4300000071525574,
                -0.050000011920928955
            ],
            "type" : "VEC3"
        },
        {
            "bufferView" : 15,
            "componentType" : 5126,
            "count" : 70,
            "type" : "VEC3"
        },
        {
            "bufferView" : 16,
            "componentType" : 5126,
            "count" : 70,
            "type" : "VEC2"
        },
        {
            "bufferView" : 17,
            "componentType" : 5123,
            "count" : 192,
            "type" : "SCALAR"
        },
        {
            "bufferView" : 18,
            "componentType" : 5126,
            "count" : 70,
            "max" : [
                0.04978672042489052,
                0.4300000071525574,
                0.049148667603731155
            ],
            "min" : [
                -0.04978672042489052,
                -0.4300000071525574,
                -0.050000011920928955
            ],
            "type" : "VEC3"
        },
        {
            "bufferView" : 19,
            "componentType" : 5126,
            "count" : 70,
            "type" : "VEC3"
        },
        {
            "bufferView" : 20,
            "componentType" : 5126,
            "count" : 70,
            "type" : "VEC2"
        },
        {
            "bufferView" : 21,
            "componentType" : 5126,
            "count" : 70,
            "max" : [
                0.04978672042489052,
                0.4300000071525574,
                0.049148667603731155
            ],
            "min" : [
                -0.04978672042489052,
                -0.4300000071525574,
                -0.050000011920928955
            ],
            "type" : "VEC3"
        },
        {
            "bufferView" : 22,
            "componentType" : 5126,
            "count" : 70,
            "type" : "VEC3"
        },
        {
            "bufferView" : 23,
            "componentType" : 5126,
            "count" : 70,
            "type" : "VEC2"
        },
        {
            "bufferView" : 24,
            "componentType" : 5126,
            "count" : 70,
            "max" : [
                0.04978672042489052,
                0.4300000071525574,
                0.049148667603731155
            ],
            "min" : [
                -0.04978672042489052,
                -0.4300000071525574,
                -0.050000011920928955
            ],
            "type" : "VEC3"
        },
        {
            "bufferView" : 25,
            "componentType" : 5126,
            "count" : 70,
            "type" : "VEC3"
        },
        {
            "bufferView" : 26,
            "componentType" : 5126,
            "count" : 70,
            "type" : "VEC2"
        },
        {
            "bufferView" : 27,
            "componentType" : 5126,
            "count" : 70,
            "max" : [
                0.04978672042489052,
                0.4300000071525574,
                0.049148667603731155
            ],
            "min" : [
                -0.04978672042489052,
                -0.4300000071525574,
                -0.050000011920928955
            ],
            "type" : "VEC3"
        },
        {
            "bufferView" : 28,
            "componentType" : 5126,
            "count" : 70,
            "type" : "VEC3"
        },
        {
            "bufferView" : 29,
            "componentType" : 5126,
            "count" : 70,
            "type" : "VEC2"
        },
        {
            "bufferView" : 30,
            "componentType" : 5126,
            "count" : 24,
            "max" : [
                0.5099999904632568,
                0.5099999904632568,
                0.5099999904632568
            ],
            "min" : [
                -0.5099999904632568,
                -0.5099999904632568,
                -0.5099999904632568
            ],
            "type" : "VEC3"
        },
        {
            "bufferView" : 31,
            "componentType" : 5126,
            "count" : 24,
            "type" : "VEC3"
        },
        {
            "bufferView" : 32,
            "componentType" : 5126,
            "count" : 24,
            "type" : "VEC2"
        }
    ],
    "bufferViews" : [
        {
            "buffer" : 0,
            "byteLength" : 336,
            "byteOffset" : 0
        },
        {
            "buffer" : 0,
            "byteLength" : 336,
            "byteOffset" : 336
        },
        {
            "buffer" : 0,
            "byteLength" : 224,
            "byteOffset" : 672
        },
        {
            "buffer" : 0,
            "byteLength" : 216,
            "byteOffset" : 896
        },
        {
            "buffer" : 0,
            "byteLength" : 336,
            "byteOffset" : 1112
        },
        {
            "buffer" : 0,
            "byteLength" : 336,
            "byteOffset" : 1448
        },
        {
            "buffer" : 0,
            "byteLength" : 224,
            "byteOffset" : 1784
        },
        {
            "buffer" : 0,
            "byteLength" : 288,
            "byteOffset" : 2008
        },
        {
            "buffer" : 0,
            "byteLength" : 288,
            "byteOffset" : 2296
        },
        {
            "buffer" : 0,
            "byteLength" : 192,
            "byteOffset" : 2584
        },
        {
            "buffer" : 0,
            "byteLength" : 72,
            "byteOffset" : 2776
        },
        {
            "buffer" : 0,
            "byteLength" : 288,
            "byteOffset" : 2848
        },
        {
            "buffer" : 0,
            "byteLength" : 288,
            "byteOffset" : 3136
        },
        {
            "buffer" : 0,
            "byteLength" : 192,
            "byteOffset" : 3424
        },
        {
            "buffer" : 0,
            "byteLength" : 840,
            "byteOffset" : 3616
        },
        {
            "buffer" : 0,
            "byteLength" : 840,
            "byteOffset" : 4456
        },
        {
            "buffer" : 0,
            "byteLength" : 560,
            "byteOffset" : 5296
        },
        {
            "buffer" : 0,
            "byteLength" : 384,
            "byteOffset" : 5856
        },
        {
            "buffer" : 0,
            "byteLength" : 840,
            "byteOffset" : 6240
        },
        {
            "buffer" : 0,
            "byteLength" : 840,
            "byteOffset" : 7080
        },
        {
            "buffer" : 0,
            "byteLength" : 560,
            "byteOffset" : 7920
        },
        {
            "buffer" : 0,
            "byteLength" : 840,
            "byteOffset" : 8480
        },
        {
            "buffer" : 0,
            "byteLength" : 840,
            "byteOffset" : 9320
        },
        {
            "buffer" : 0,
            "byteLength" : 560,
            "byteOffset" : 10160
        },
        {
            "buffer" : 0,
            "byteLength" : 840,
            "byteOffset" : 10720
        },
        {
            "buffer" : 0,
            "byteLength" : 840,
            "byteOffset" : 11560
        },
        {
            "buffer" : 0,
            "byteLength" : 560,
            "byteOffset" : 12400
        },
        {
            "buffer" : 0,
            "byteLength" : 840,
            "byteOffset" : 12960
        },
        {
            "buffer" : 0,
            "byteLength" : 840,
            "byteOffset" : 13800
        },
        {
            "buffer" : 0,
            "byteLength" : 560,
            "byteOffset" : 14640
        },
        {
            "buffer" : 0,
            "byteLength" : 288,
            "byteOffset" : 15200
        },
        {
            "buffer" : 0,
            "byteLength" : 288,
            "byteOffset" : 15488
        },
        {
            "buffer" : 0,
            "byteLength" : 192,
            "byteOffset" : 15776
        }
    ],
    "buffers" : [
        {
            "byteLength" : 15968,
            "uri" : "data:application/octet-stream;base64,"
        }
    ]
}
